<?xml version="1.0" encoding="UTF-8"?>
<svg version="1.1" xmlns="http://www.w3.org/2000/svg" width="16" height="16">
<path d="M0 0 C5.28 0 10.56 0 16 0 C16 5.28 16 10.56 16 16 C10.72 16 5.44 16 0 16 C0 10.72 0 5.44 0 0 Z " fill="#E0D167" transform="translate(0,0)"/>
<path d="M0 0 C5.28 0 10.56 0 16 0 C15.67 1.32 15.34 2.64 15 4 C14.67 3.67 14.34 3.34 14 3 C13.67 3.99 13.34 4.98 13 6 C11.68 5.67 10.36 5.34 9 5 C9.33 7.97 9.66 10.94 10 14 C8.68 14 7.36 14 6 14 C6.33 11.03 6.66 8.06 7 5 C5.68 5.33 4.36 5.66 3 6 C2.67 5.01 2.34 4.02 2 3 C1.01 3.495 1.01 3.495 0 4 C0 2.68 0 1.36 0 0 Z " fill="#BBAE56" transform="translate(0,0)"/>
<path d="M0 0 C3.3 0 6.6 0 10 0 C10 0.99 10 1.98 10 3 C8.68 2.67 7.36 2.34 6 2 C6.33 4.97 6.66 7.94 7 11 C5.68 11 4.36 11 3 11 C3.33 8.03 3.66 5.06 4 2 C2.68 2.33 1.36 2.66 0 3 C0 2.01 0 1.02 0 0 Z " fill="#0E0D06" transform="translate(3,3)"/>
</svg>
